<svg xmlns="http://www.w3.org/2000/svg" xmlns:xlink="http://www.w3.org/1999/xlink" contentStyleType="text/css" data-diagram-type="DESCRIPTION" height="1361px" preserveAspectRatio="none" style="width:2450px;height:1361px;background:#FFFFFF;" version="1.1" viewBox="0 0 2450 1361" width="2450px" zoomAndPan="magnify"><title>Kuhl Haus Market Data Platform - Component Architecture</title><defs/><g><g class="title" data-source-line="8"><text fill="#000000" font-family="sans-serif" font-size="14" font-weight="bold" lengthAdjust="spacing" textLength="464.9531" x="985.5276" y="22.9951">Kuhl Haus Market Data Platform - Component Architecture</text></g><!--cluster Control Plane--><g class="cluster" data-entity="Control Plane" data-source-line="12" data-uid="ent0003" id="cluster_Control Plane"><path d="M8.5,947.8669 L116.2158,947.8669 A3.75,3.75 0 0 1 118.7158,950.3669 L125.7158,970.1638 L247.5,970.1638 A2.5,2.5 0 0 1 250,972.6638 L250,1032.6569 A2.5,2.5 0 0 1 247.5,1035.1569 L8.5,1035.1569 A2.5,2.5 0 0 1 6,1032.6569 L6,950.3669 A2.5,2.5 0 0 1 8.5,947.8669" fill="#EEEEEE" style="stroke:#000000;stroke-width:1.5;"/><line style="stroke:#000000;stroke-width:1.5;" x1="6" x2="125.7158" y1="970.1638" y2="970.1638"/><text fill="#000000" font-family="sans-serif" font-size="14" font-weight="bold" lengthAdjust="spacing" textLength="106.7158" x="10" y="962.862">Control Plane</text></g><!--cluster Data Plane--><g class="cluster" data-entity="Data Plane" data-source-line="16" data-uid="ent0005" id="cluster_Data Plane"><path d="M276.5,191.9569 L363.5508,191.9569 A3.75,3.75 0 0 1 366.0508,194.4569 L373.0508,214.2538 L1279.5,214.2538 A2.5,2.5 0 0 1 1282,216.7538 L1282,1351.9369 A2.5,2.5 0 0 1 1279.5,1354.4369 L276.5,1354.4369 A2.5,2.5 0 0 1 274,1351.9369 L274,194.4569 A2.5,2.5 0 0 1 276.5,191.9569" fill="#E8F4F8" style="stroke:#000000;stroke-width:1.5;"/><line style="stroke:#000000;stroke-width:1.5;" x1="274" x2="373.0508" y1="214.2538" y2="214.2538"/><text fill="#000000" font-family="sans-serif" font-size="14" font-weight="bold" lengthAdjust="spacing" textLength="86.0508" x="278" y="206.952">Data Plane</text></g><!--cluster Market Data Listener (MDL)--><g class="cluster" data-entity="Market Data Listener .MDL." data-source-line="18" data-uid="ent0006" id="cluster_Market Data Listener .MDL."><path d="M1025.5,234.9569 L1245.9883,234.9569 A3.75,3.75 0 0 1 1248.4883,237.4569 L1255.4883,257.2538 L1255.5,257.2538 A2.5,2.5 0 0 1 1258,259.7538 L1258,595.7169 A2.5,2.5 0 0 1 1255.5,598.2169 L1025.5,598.2169 A2.5,2.5 0 0 1 1023,595.7169 L1023,237.4569 A2.5,2.5 0 0 1 1025.5,234.9569" fill="#DDDDDD" style="stroke:#000000;stroke-width:1.5;"/><line style="stroke:#000000;stroke-width:1.5;" x1="1023" x2="1255.4883" y1="257.2538" y2="257.2538"/><text fill="#000000" font-family="sans-serif" font-size="14" font-weight="bold" lengthAdjust="spacing" textLength="219.4883" x="1027" y="249.952">Market Data Listener (MDL)</text></g><!--cluster Market Data Processor (MDP)--><g class="cluster" data-entity="Market Data Processor .MDP." data-source-line="26" data-uid="ent0011" id="cluster_Market Data Processor .MDP."><path d="M556.5,809.8869 L791.4873,809.8869 A3.75,3.75 0 0 1 793.9873,812.3869 L800.9873,832.1838 L1255.5,832.1838 A2.5,2.5 0 0 1 1258,834.6838 L1258,1191.6369 A2.5,2.5 0 0 1 1255.5,1194.1369 L556.5,1194.1369 A2.5,2.5 0 0 1 554,1191.6369 L554,812.3869 A2.5,2.5 0 0 1 556.5,809.8869" fill="#DDDDDD" style="stroke:#000000;stroke-width:1.5;"/><line style="stroke:#000000;stroke-width:1.5;" x1="554" x2="800.9873" y1="832.1838" y2="832.1838"/><text fill="#000000" font-family="sans-serif" font-size="14" font-weight="bold" lengthAdjust="spacing" textLength="233.9873" x="558" y="824.882">Market Data Processor (MDP)</text></g><!--cluster Widget Data Service (WDS)--><g class="cluster" data-entity="Widget Data Service .WDS." data-source-line="37" data-uid="ent0019" id="cluster_Widget Data Service .WDS."><path d="M300.5,1106.8469 L517.9463,1106.8469 A3.75,3.75 0 0 1 520.4463,1109.3469 L527.4463,1129.1438 L527.5,1129.1438 A2.5,2.5 0 0 1 530,1131.6438 L530,1327.9369 A2.5,2.5 0 0 1 527.5,1330.4369 L300.5,1330.4369 A2.5,2.5 0 0 1 298,1327.9369 L298,1109.3469 A2.5,2.5 0 0 1 300.5,1106.8469" fill="#DDDDDD" style="stroke:#000000;stroke-width:1.5;"/><line style="stroke:#000000;stroke-width:1.5;" x1="298" x2="527.4463" y1="1129.1438" y2="1129.1438"/><text fill="#000000" font-family="sans-serif" font-size="14" font-weight="bold" lengthAdjust="spacing" textLength="216.4463" x="302" y="1121.842">Widget Data Service (WDS)</text></g><!--cluster Observability--><g class="cluster" data-entity="Observability" data-source-line="43" data-uid="ent0022" id="cluster_Observability"><path d="M1350.5,1243.1369 L1456.9648,1243.1369 A3.75,3.75 0 0 1 1459.4648,1245.6369 L1466.4648,1265.4338 L1695.5,1265.4338 A2.5,2.5 0 0 1 1698,1267.9338 L1698,1327.9369 A2.5,2.5 0 0 1 1695.5,1330.4369 L1350.5,1330.4369 A2.5,2.5 0 0 1 1348,1327.9369 L1348,1245.6369 A2.5,2.5 0 0 1 1350.5,1243.1369" fill="#FFF9E6" style="stroke:#000000;stroke-width:1.5;"/><line style="stroke:#000000;stroke-width:1.5;" x1="1348" x2="1466.4648" y1="1265.4338" y2="1265.4338"/><text fill="#000000" font-family="sans-serif" font-size="14" font-weight="bold" lengthAdjust="spacing" textLength="105.4648" x="1352" y="1258.132">Observability</text></g><!--cluster Shared Libraries--><g class="cluster" data-entity="Shared Libraries" data-source-line="48" data-uid="ent0025" id="cluster_Shared Libraries"><path d="M1781.5,947.8669 L1912.916,947.8669 A3.75,3.75 0 0 1 1915.416,950.3669 L1922.416,970.1638 L2265.5,970.1638 A2.5,2.5 0 0 1 2268,972.6638 L2268,1032.6569 A2.5,2.5 0 0 1 2265.5,1035.1569 L1781.5,1035.1569 A2.5,2.5 0 0 1 1779,1032.6569 L1779,950.3669 A2.5,2.5 0 0 1 1781.5,947.8669" fill="#F0F0F0" style="stroke:#000000;stroke-width:1.5;"/><line style="stroke:#000000;stroke-width:1.5;" x1="1779" x2="1922.416" y1="970.1638" y2="970.1638"/><text fill="#000000" font-family="sans-serif" font-size="14" font-weight="bold" lengthAdjust="spacing" textLength="130.416" x="1783" y="962.862">Shared Libraries</text></g><!--entity SCP--><g class="entity" data-entity="SCP" data-source-line="13" data-uid="ent0004" id="entity_SCP"><rect fill="#7ED321" height="36.2969" rx="2.5" ry="2.5" style="stroke:#181818;stroke-width:0.5;" width="212.4316" x="21.78" y="982.8669"/><text fill="#000000" font-family="sans-serif" font-size="14" lengthAdjust="spacing" textLength="192.4316" x="31.78" y="1005.862">Service Control Plane (SCP)</text></g><!--entity MDQ--><g class="entity" data-entity="MDQ" data-source-line="24" data-uid="ent0010" id="entity_MDQ"><path d="M1038.25,690.8969 L1241.7412,690.8969 C1246.7412,690.8969 1246.7412,704.0453 1246.7412,704.0453 C1246.7412,704.0453 1246.7412,717.1938 1241.7412,717.1938 L1038.25,717.1938 C1033.25,717.1938 1033.25,704.0453 1033.25,704.0453 C1033.25,704.0453 1033.25,690.8969 1038.25,690.8969" fill="#D0021B" style="stroke:#181818;stroke-width:0.5;"/><path d="M1241.7412,690.8969 C1236.7412,690.8969 1236.7412,704.0453 1236.7412,704.0453 C1236.7412,717.1938 1241.7412,717.1938 1241.7412,717.1938" fill="none" style="stroke:#181818;stroke-width:0.5;"/><text fill="#000000" font-family="sans-serif" font-size="14" lengthAdjust="spacing" textLength="193.4912" x="1038.25" y="708.892">Market Data Queues (MDQ)</text></g><!--entity MDC--><g class="entity" data-entity="MDC" data-source-line="35" data-uid="ent0018" id="entity_MDC"><path d="M335.75,988.3669 C335.75,978.3669 436.9995,978.3669 436.9995,978.3669 C436.9995,978.3669 538.249,978.3669 538.249,988.3669 L538.249,1013.6638 C538.249,1023.6638 436.9995,1023.6638 436.9995,1023.6638 C436.9995,1023.6638 335.75,1023.6638 335.75,1013.6638 L335.75,988.3669" fill="#F5A623" style="stroke:#181818;stroke-width:0.5;"/><path d="M335.75,988.3669 C335.75,998.3669 436.9995,998.3669 436.9995,998.3669 C436.9995,998.3669 538.249,998.3669 538.249,988.3669" fill="none" style="stroke:#181818;stroke-width:0.5;"/><text fill="#000000" font-family="sans-serif" font-size="14" lengthAdjust="spacing" textLength="182.499" x="345.75" y="1015.362">Market Data Cache (MDC)</text></g><!--entity Listener--><g class="entity" data-entity="Listener" data-source-line="19" data-uid="ent0007" id="entity_Listener"><rect fill="#F1F1F1" height="36.2969" rx="2.5" ry="2.5" style="stroke:#181818;stroke-width:0.5;" width="165.79" x="1076.1" y="269.9569"/><text fill="#000000" font-family="sans-serif" font-size="14" lengthAdjust="spacing" textLength="145.79" x="1086.1" y="292.952">MassiveDataListener</text></g><!--entity Queues--><g class="entity" data-entity="Queues" data-source-line="20" data-uid="ent0008" id="entity_Queues"><rect fill="#F1F1F1" height="36.2969" rx="2.5" ry="2.5" style="stroke:#181818;stroke-width:0.5;" width="162.748" x="1074.63" y="545.9169"/><text fill="#000000" font-family="sans-serif" font-size="14" lengthAdjust="spacing" textLength="142.748" x="1084.63" y="568.912">MassiveDataQueues</text></g><!--entity Resolver--><g class="entity" data-entity="Resolver" data-source-line="21" data-uid="ent0009" id="entity_Resolver"><rect fill="#F1F1F1" height="36.2969" rx="2.5" ry="2.5" style="stroke:#181818;stroke-width:0.5;" width="168.0391" x="1073.98" y="407.9369"/><text fill="#000000" font-family="sans-serif" font-size="14" lengthAdjust="spacing" textLength="148.0391" x="1083.98" y="430.932">QueueNameResolver</text></g><!--entity Processor--><g class="entity" data-entity="Processor" data-source-line="27" data-uid="ent0012" id="entity_Processor"><rect fill="#F1F1F1" height="36.2969" rx="2.5" ry="2.5" style="stroke:#181818;stroke-width:0.5;" width="177.4453" x="1064.28" y="844.8869"/><text fill="#000000" font-family="sans-serif" font-size="14" lengthAdjust="spacing" textLength="157.4453" x="1074.28" y="867.882">MassiveDataProcessor</text></g><!--entity Scanner--><g class="entity" data-entity="Scanner" data-source-line="28" data-uid="ent0013" id="entity_Scanner"><rect fill="#F1F1F1" height="36.2969" rx="2.5" ry="2.5" style="stroke:#181818;stroke-width:0.5;" width="159.3301" x="991.33" y="982.8669"/><text fill="#000000" font-family="sans-serif" font-size="14" lengthAdjust="spacing" textLength="139.3301" x="1001.33" y="1005.862">MarketDataScanner</text></g><!--entity Router--><g class="entity" data-entity="Router" data-source-line="29" data-uid="ent0014" id="entity_Router"><rect fill="#F1F1F1" height="36.2969" rx="2.5" ry="2.5" style="stroke:#181818;stroke-width:0.5;" width="170.3838" x="686.81" y="982.8669"/><text fill="#000000" font-family="sans-serif" font-size="14" lengthAdjust="spacing" textLength="150.3838" x="696.81" y="1005.862">MassiveDataAnalyzer</text></g><!--entity Leaderboard--><g class="entity" data-entity="Leaderboard" data-source-line="30" data-uid="ent0015" id="entity_Leaderboard"><rect fill="#F1F1F1" height="36.2969" rx="2.5" ry="2.5" style="stroke:#181818;stroke-width:0.5;" width="169.8438" x="995.08" y="1141.8469"/><text fill="#000000" font-family="sans-serif" font-size="14" lengthAdjust="spacing" textLength="149.8438" x="1005.08" y="1164.842">LeaderboardAnalyzer</text></g><!--entity TopTrades--><g class="entity" data-entity="TopTrades" data-source-line="31" data-uid="ent0016" id="entity_TopTrades"><rect fill="#F1F1F1" height="36.2969" rx="2.5" ry="2.5" style="stroke:#181818;stroke-width:0.5;" width="154.6064" x="763.7" y="1141.8469"/><text fill="#000000" font-family="sans-serif" font-size="14" lengthAdjust="spacing" textLength="134.6064" x="773.7" y="1164.842">TopTradesAnalyzer</text></g><!--entity TopStocks--><g class="entity" data-entity="TopStocks" data-source-line="32" data-uid="ent0017" id="entity_TopStocks"><rect fill="#F1F1F1" height="36.2969" rx="2.5" ry="2.5" style="stroke:#181818;stroke-width:0.5;" width="152.9658" x="569.52" y="1141.8469"/><text fill="#000000" font-family="sans-serif" font-size="14" lengthAdjust="spacing" textLength="132.9658" x="579.52" y="1164.842">TopStocksAnalyzer</text></g><!--entity Widget--><g class="entity" data-entity="Widget" data-source-line="38" data-uid="ent0020" id="entity_Widget"><rect fill="#F1F1F1" height="36.2969" rx="2.5" ry="2.5" style="stroke:#181818;stroke-width:0.5;" width="154.7773" x="348.61" y="1141.8469"/><text fill="#000000" font-family="sans-serif" font-size="14" lengthAdjust="spacing" textLength="134.7773" x="358.61" y="1164.842">WidgetDataService</text></g><!--entity CacheClient--><g class="entity" data-entity="CacheClient" data-source-line="39" data-uid="ent0021" id="entity_CacheClient"><rect fill="#F1F1F1" height="36.2969" rx="2.5" ry="2.5" style="stroke:#181818;stroke-width:0.5;" width="190.5703" x="323.71" y="1278.1369"/><text fill="#000000" font-family="sans-serif" font-size="14" lengthAdjust="spacing" textLength="170.5703" x="333.71" y="1301.132">MarketDataCache Client</text></g><!--entity OTel--><g class="entity" data-entity="OTel" data-source-line="44" data-uid="ent0023" id="entity_OTel"><rect fill="#F1F1F1" height="36.2969" rx="2.5" ry="2.5" style="stroke:#181818;stroke-width:0.5;" width="128.8418" x="1363.58" y="1278.1369"/><text fill="#000000" font-family="sans-serif" font-size="14" lengthAdjust="spacing" textLength="108.8418" x="1373.58" y="1301.132">OpenTelemetry</text></g><!--entity Logging--><g class="entity" data-entity="Logging" data-source-line="45" data-uid="ent0024" id="entity_Logging"><rect fill="#F1F1F1" height="36.2969" rx="2.5" ry="2.5" style="stroke:#181818;stroke-width:0.5;" width="154.5586" x="1527.72" y="1278.1369"/><text fill="#000000" font-family="sans-serif" font-size="14" lengthAdjust="spacing" textLength="134.5586" x="1537.72" y="1301.132">Structured Logging</text></g><!--entity PM--><g class="entity" data-entity="PM" data-source-line="49" data-uid="ent0026" id="entity_PM"><rect fill="#F1F1F1" height="36.2969" rx="2.5" ry="2.5" style="stroke:#181818;stroke-width:0.5;" width="135.0283" x="1795.49" y="982.8669"/><text fill="#000000" font-family="sans-serif" font-size="14" lengthAdjust="spacing" textLength="115.0283" x="1805.49" y="1005.862">ProcessManager</text></g><!--entity Serde--><g class="entity" data-entity="Serde" data-source-line="50" data-uid="ent0027" id="entity_Serde"><rect fill="#F1F1F1" height="36.2969" rx="2.5" ry="2.5" style="stroke:#181818;stroke-width:0.5;" width="200.8174" x="1965.59" y="982.8669"/><text fill="#000000" font-family="sans-serif" font-size="14" lengthAdjust="spacing" textLength="180.8174" x="1975.59" y="1005.862">WebSocketMessageSerde</text></g><!--entity Utils--><g class="entity" data-entity="Utils" data-source-line="51" data-uid="ent0028" id="entity_Utils"><rect fill="#F1F1F1" height="36.2969" rx="2.5" ry="2.5" style="stroke:#181818;stroke-width:0.5;" width="50.8096" x="2201.6" y="982.8669"/><text fill="#000000" font-family="sans-serif" font-size="14" lengthAdjust="spacing" textLength="30.8096" x="2211.6" y="1005.862">Utils</text></g><!--entity Massive--><g class="entity" data-entity="Massive" data-source-line="10" data-uid="ent0002" id="entity_Massive"><path d="M1052.6166,71.3478 C1057.0592,63.5364 1064.1167,63.936 1069.2429,70.5604 C1074.032,62.8349 1079.785,61.8165 1085.1966,69.9335 C1088.6743,62.7493 1095.0389,62.5606 1098.7277,69.7346 C1103.4922,62.5155 1109.2655,61.0796 1114.9044,68.787 C1119.5492,60.2032 1125.6707,61.2084 1130.9173,68.1669 C1135.6128,62.7847 1139.822,61.9682 1143.7464,68.966 C1148.2745,62.2817 1154.3994,60.0422 1159.5305,68.3304 C1165.0258,61.8538 1170.6749,61.945 1175.6743,68.9253 C1180.2301,62.0614 1187.3362,62.6945 1190.3837,70.4435 C1194.611,62.1975 1201.7552,62.6309 1207.121,69.1532 C1211.1057,61.6971 1217.9433,63.2177 1221.0753,69.9894 C1226.0755,62.9078 1231.7774,61.7389 1236.8997,69.8624 C1242.8436,63.3985 1248.4228,62.5815 1253.2224,71.1084 C1257.359,64.5784 1264.4619,63.8889 1267.7537,71.9497 C1275.2609,74.1127 1278.9431,80.3381 1272.8006,87.0601 C1278.728,94.2021 1274.3799,101.0216 1266.2628,102.0298 C1263.7064,109.1409 1257.0552,109.5021 1252.4647,104.3114 C1248.8635,111.8474 1243.3269,111.7544 1237.9781,106.2533 C1234.9403,115.5549 1226.4031,115.9499 1220.9183,108.7892 C1215.8752,115.4604 1210.393,116.9921 1205.0397,109.128 C1201.3465,116.5487 1197.1505,117.8548 1191.1171,111.4917 C1185.7323,120.2364 1180.164,118.51 1174.9644,111.3042 C1171.3938,118.2683 1166.7625,117.7536 1161.7102,112.9767 C1155.6148,121.3423 1148.4182,120.5037 1143.8889,111.3807 C1139.4499,117.3695 1134.4103,117.3838 1129.8399,111.5367 C1124.6417,120.13 1117.2666,118.4321 1113.1254,110.4696 C1107.2868,116.3486 1101.9215,113.9727 1099.4946,106.8835 C1093.7984,113.6457 1088.3536,113.6468 1084.5887,105.0136 C1079.2508,112.9112 1074.4796,113.3605 1068.8285,105.3233 C1062.8788,111.5157 1055.1186,110.7897 1052.401,101.8212 C1041.992,102.7622 1039.9673,96.606 1042.2116,88.13 C1036.7552,76.7742 1041.1586,72.2166 1052.6166,71.3478" fill="#FFEEEE" style="stroke:#181818;stroke-width:0.5;"/><text fill="#000000" font-family="sans-serif" font-size="14" lengthAdjust="spacing" textLength="200.1357" x="1058.93" y="90.972">Massive.com WebSocket API</text></g><!--entity Clients--><g class="entity" data-entity="Clients" data-source-line="54" data-uid="ent0029" id="entity_Clients"><ellipse cx="163.9986" cy="1266.6369" fill="#F1F1F1" rx="8" ry="8" style="stroke:#181818;stroke-width:0.5;"/><path d="M163.9986,1274.6369 L163.9986,1301.6369 M150.9986,1282.6369 L176.9986,1282.6369 M163.9986,1301.6369 L150.9986,1316.6369 M163.9986,1301.6369 L176.9986,1316.6369" fill="none" style="stroke:#181818;stroke-width:0.5;"/><text fill="#000000" font-family="sans-serif" font-size="14" lengthAdjust="spacing" textLength="83.6172" x="122.19" y="1331.132">Web Clients</text></g><g class="entity" data-entity="GMN56" data-source-line="89" data-uid="ent0057" id="entity_GMN56"><path d="M1297.94,661.2169 L1297.94,700.0469 L1246.87,704.0469 L1297.94,708.0469 L1297.94,746.8809 A0,0 0 0 0 1297.94,746.8809 L1484.0616,746.8809 A0,0 0 0 0 1484.0616,746.8809 L1484.0616,671.2169 L1474.0616,661.2169 L1297.94,661.2169 A0,0 0 0 0 1297.94,661.2169" fill="#FEFFDD" style="stroke:#181818;stroke-width:0.5;"/><path d="M1474.0616,661.2169 L1474.0616,671.2169 L1484.0616,671.2169 L1474.0616,661.2169" fill="#FEFFDD" style="stroke:#181818;stroke-width:0.5;"/><text fill="#000000" font-family="sans-serif" font-size="13" lengthAdjust="spacing" textLength="63.6606" x="1303.94" y="678.2838">RabbitMQ</text><text fill="#000000" font-family="sans-serif" font-size="13" lengthAdjust="spacing" textLength="165.1216" x="1303.94" y="693.4166">Non-persistent messages</text><text fill="#000000" font-family="sans-serif" font-size="13" lengthAdjust="spacing" textLength="86.582" x="1303.94" y="708.5494">5-second TTL</text><text fill="#000000" font-family="sans-serif" font-size="13" lengthAdjust="spacing" textLength="156.7998" x="1303.94" y="723.6822">Per-subscription queues</text><text fill="#000000" font-family="sans-serif" font-size="13" lengthAdjust="spacing" textLength="88.1499" x="1303.94" y="738.815">FIFO ordering</text></g><g class="entity" data-entity="GMN59" data-source-line="97" data-uid="ent0060" id="entity_GMN59"><path d="M2287,958.1769 L2287,1043.8409 L2443.0083,1043.8409 L2443.0083,968.1769 L2433.0083,958.1769 L2287,958.1769" fill="#FEFFDD" style="stroke:#181818;stroke-width:0.5;"/><path d="M2433.0083,958.1769 L2433.0083,968.1769 L2443.0083,968.1769 L2433.0083,958.1769" fill="#FEFFDD" style="stroke:#181818;stroke-width:1;"/><text fill="#000000" font-family="sans-serif" font-size="13" lengthAdjust="spacing" textLength="35.6675" x="2293" y="975.2438">Redis</text><text fill="#000000" font-family="sans-serif" font-size="13" lengthAdjust="spacing" textLength="113.7119" x="2293" y="990.3766">In-memory cache</text><text fill="#000000" font-family="sans-serif" font-size="13" lengthAdjust="spacing" textLength="135.0083" x="2293" y="1005.5094">TTL policies (5s-24h)</text><text fill="#000000" font-family="sans-serif" font-size="13" lengthAdjust="spacing" textLength="118.6885" x="2293" y="1020.6422">Atomic operations</text><text fill="#000000" font-family="sans-serif" font-size="13" lengthAdjust="spacing" textLength="128.1147" x="2293" y="1035.775">Pub/Sub messaging</text></g><g class="entity" data-entity="GMN62" data-source-line="105" data-uid="ent0063" id="entity_GMN62"><path d="M1298.14,958.1769 L1298.14,1043.8409 A0,0 0 0 0 1298.14,1043.8409 L1459.8612,1043.8409 A0,0 0 0 0 1459.8612,1043.8409 L1459.8612,968.1769 L1449.8612,958.1769 L1312.75,958.1769 L1182.08,881.5269 L1304.75,958.1769 L1298.14,958.1769 A0,0 0 0 0 1298.14,958.1769" fill="#FEFFDD" style="stroke:#181818;stroke-width:0.5;"/><path d="M1449.8612,958.1769 L1449.8612,968.1769 L1459.8612,968.1769 L1449.8612,958.1769" fill="#FEFFDD" style="stroke:#181818;stroke-width:0.5;"/><text fill="#000000" font-family="sans-serif" font-size="13" lengthAdjust="spacing" textLength="125.5884" x="1304.14" y="975.2438">Concurrency Model</text><text fill="#000000" font-family="sans-serif" font-size="13" lengthAdjust="spacing" textLength="140.7212" x="1304.14" y="990.3766">Semaphore limit: 500</text><text fill="#000000" font-family="sans-serif" font-size="13" lengthAdjust="spacing" textLength="113.2231" x="1304.14" y="1005.5094">Async processing</text><text fill="#000000" font-family="sans-serif" font-size="13" lengthAdjust="spacing" textLength="116.1113" x="1304.14" y="1020.6422">Horizontal scaling</text><text fill="#000000" font-family="sans-serif" font-size="13" lengthAdjust="spacing" textLength="106.8247" x="1304.14" y="1035.775">Stateless design</text></g><g class="entity" data-entity="GMN65" data-source-line="113" data-uid="ent0066" id="entity_GMN65"><path d="M1977.25,383.2569 L1977.25,468.9209 L2146.7407,468.9209 L2146.7407,393.2569 L2136.7407,383.2569 L1977.25,383.2569" fill="#FEFFDD" style="stroke:#181818;stroke-width:0.5;"/><path d="M2136.7407,383.2569 L2136.7407,393.2569 L2146.7407,393.2569 L2136.7407,383.2569" fill="#FEFFDD" style="stroke:#181818;stroke-width:1;"/><text fill="#000000" font-family="sans-serif" font-size="13" lengthAdjust="spacing" textLength="148.4907" x="1983.25" y="400.3238">Reconnection Strategy</text><text fill="#000000" font-family="sans-serif" font-size="13" lengthAdjust="spacing" textLength="89.7495" x="1983.25" y="415.4566">Market-aware</text><text fill="#000000" font-family="sans-serif" font-size="13" lengthAdjust="spacing" textLength="100.0391" x="1983.25" y="430.5894">Auto-reconnect</text><text fill="#000000" font-family="sans-serif" font-size="13" lengthAdjust="spacing" textLength="126.9912" x="1983.25" y="445.7222">60s polling (closed)</text><text fill="#000000" font-family="sans-serif" font-size="13" lengthAdjust="spacing" textLength="100.0073" x="1983.25" y="460.855">Health tracking</text></g><g class="entity" data-entity="DeploymentNote" data-source-line="121" data-uid="ent0068" id="entity_DeploymentNote"><path d="M1308.73,43.2969 L1308.73,128.9609 L1565.2661,128.9609 L1565.2661,53.2969 L1555.2661,43.2969 L1308.73,43.2969" fill="#FEFFDD" style="stroke:#181818;stroke-width:0.5;"/><path d="M1555.2661,43.2969 L1555.2661,53.2969 L1565.2661,53.2969 L1555.2661,43.2969" fill="#FEFFDD" style="stroke:#181818;stroke-width:1;"/><text fill="#000000" font-family="sans-serif" font-size="13" lengthAdjust="spacing" textLength="227.6333" x="1314.73" y="60.3638">Deployment: Kubernetes + Docker</text><text fill="#000000" font-family="sans-serif" font-size="13" lengthAdjust="spacing" textLength="235.5361" x="1314.73" y="75.4966">Independent scaling per component</text><text fill="#000000" font-family="sans-serif" font-size="13" lengthAdjust="spacing" textLength="218.4165" x="1314.73" y="90.6294">Data plane: internal network only</text><text fill="#000000" font-family="sans-serif" font-size="13" lengthAdjust="spacing" textLength="158.3423" x="1314.73" y="105.7622">WDS: exposed to clients</text><text fill="#000000" font-family="sans-serif" font-size="13" lengthAdjust="spacing" textLength="135.5669" x="1314.73" y="120.895">SCP: external access</text></g><!--link Massive to Listener--><g class="link" data-entity-1="Massive" data-entity-2="Listener" data-source-line="56" data-uid="lnk30" id="link_Massive_Listener"><path d="M1159,109.6769 C1159,149.9269 1159,227.2969 1159,263.5969" fill="none" id="Massive-to-Listener" style="stroke:#FF0000;stroke-width:3;"/><polygon fill="#FF0000" points="1159,269.5969,1163,260.5969,1159,264.5969,1155,260.5969,1159,269.5969" style="stroke:#FF0000;stroke-width:3;"/><text fill="#000000" font-family="sans-serif" font-size="13" lengthAdjust="spacing" textLength="123.0557" x="1160" y="172.0238">WebSocket stream</text></g><!--link Listener to Resolver--><g class="link" data-entity-1="Listener" data-entity-2="Resolver" data-source-line="57" data-uid="lnk31" id="link_Listener_Resolver"><path d="M1158.87,306.6069 C1158.68,332.7169 1158.3637,375.587 1158.1737,401.657" fill="none" id="Listener-to-Resolver" style="stroke:#333333;stroke-width:2;"/><polygon fill="#333333" points="1158.13,407.6569,1162.1955,398.6863,1158.1664,402.657,1154.1957,398.628,1158.13,407.6569" style="stroke:#333333;stroke-width:2;"/><text fill="#000000" font-family="sans-serif" font-size="13" lengthAdjust="spacing" textLength="87.8833" x="1159.65" y="349.3238">route by type</text></g><!--link Resolver to Queues--><g class="link" data-entity-1="Resolver" data-entity-2="Queues" data-source-line="58" data-uid="lnk32" id="link_Resolver_Queues"><path d="M1157.74,444.5869 C1157.36,470.6969 1156.7274,513.5675 1156.3474,539.6375" fill="none" id="Resolver-to-Queues" style="stroke:#333333;stroke-width:2;"/><polygon fill="#333333" points="1156.26,545.6369,1160.3907,536.6961,1156.3329,540.6374,1152.3916,536.5795,1156.26,545.6369" style="stroke:#333333;stroke-width:2;"/><text fill="#000000" font-family="sans-serif" font-size="13" lengthAdjust="spacing" textLength="46.979" x="1157.94" y="511.9838">publish</text></g><!--link Queues to MDQ--><g class="link" data-entity-1="Queues" data-entity-2="MDQ" data-source-line="59" data-uid="lnk33" id="link_Queues_MDQ"><path d="M1153.97,582.5469 C1150.69,610.8269 1144.9912,659.9868 1142.1312,684.6468" fill="none" id="Queues-to-MDQ" style="stroke:#FFA500;stroke-width:3;"/><polygon fill="#FFA500" points="1141.44,690.6069,1146.4502,682.1276,1142.016,685.6402,1138.5035,681.206,1141.44,690.6069" style="stroke:#FFA500;stroke-width:3;"/><text fill="#000000" font-family="sans-serif" font-size="13" lengthAdjust="spacing" textLength="124.6172" x="1150.9" y="627.2838">RabbitMQ (TTL: 5s)</text></g><!--link MDQ to Processor--><g class="link" data-entity-1="MDQ" data-entity-2="Processor" data-source-line="61" data-uid="lnk34" id="link_MDQ_Processor"><path d="M1141.04,717.6269 C1143.35,745.4969 1148.4064,806.4972 1151.0464,838.4772" fill="none" id="MDQ-to-Processor" style="stroke:#FFA500;stroke-width:3;"/><polygon fill="#FFA500" points="1151.54,844.4569,1154.786,835.1583,1151.1286,839.4738,1146.8131,835.8165,1151.54,844.4569" style="stroke:#FFA500;stroke-width:3;"/><text fill="#000000" font-family="sans-serif" font-size="13" lengthAdjust="spacing" textLength="161.2686" x="1148.28" y="789.9538">consume (prefetch: 100)</text></g><!--link Processor to Router--><g class="link" data-entity-1="Processor" data-entity-2="Router" data-source-line="62" data-uid="lnk35" id="link_Processor_Router"><path d="M1103.58,881.6669 C1030.49,907.7569 900.0208,954.3199 826.9808,980.3899" fill="none" id="Processor-to-Router" style="stroke:#333333;stroke-width:2;"/><polygon fill="#333333" points="821.33,982.4069,831.1509,983.1487,826.039,980.7261,828.4616,975.6142,821.33,982.4069" style="stroke:#333333;stroke-width:2;"/><text fill="#000000" font-family="sans-serif" font-size="13" lengthAdjust="spacing" textLength="50.2988" x="1019.89" y="924.2438">analyze</text></g><!--link Router to Leaderboard--><g class="link" data-entity-1="Router" data-entity-2="Leaderboard" data-source-line="63" data-uid="lnk36" id="link_Router_Leaderboard"><path d="M811.32,1019.6369 C842.42,1033.7869 886.82,1054.4169 925,1073.8469 C948.53,1085.8169 1005.17,1117.2141 1043.25,1138.4541" fill="none" id="Router-to-Leaderboard" style="stroke:#333333;stroke-width:2;"/><polygon fill="#333333" points="1048.49,1141.3769,1042.5785,1133.4994,1044.1233,1138.9413,1038.6815,1140.4861,1048.49,1141.3769" style="stroke:#333333;stroke-width:2;"/><text fill="#000000" font-family="sans-serif" font-size="13" lengthAdjust="spacing" textLength="115.0576" x="955.57" y="1086.9138">aggregate events</text></g><!--link Router to TopTrades--><g class="link" data-entity-1="Router" data-entity-2="TopTrades" data-source-line="64" data-uid="lnk37" id="link_Router_TopTrades"><path d="M749.55,1019.4469 C728.9,1037.6669 703.77,1066.8669 720,1090.8469 C725.37,1098.7669 731.42,1094.6069 740,1098.8469 C765.98,1111.6769 789.1545,1125.5612 809.1445,1138.2512" fill="none" id="Router-to-TopTrades" style="stroke:#333333;stroke-width:2;"/><polygon fill="#333333" points="814.21,1141.4669,808.7555,1133.2664,809.9887,1138.7871,804.4679,1140.0204,814.21,1141.4669" style="stroke:#333333;stroke-width:2;"/><text fill="#000000" font-family="sans-serif" font-size="13" lengthAdjust="spacing" textLength="82.5894" x="721" y="1086.9138">trade events</text></g><!--link Router to TopStocks--><g class="link" data-entity-1="Router" data-entity-2="TopStocks" data-source-line="65" data-uid="lnk38" id="link_Router_TopStocks"><path d="M734.75,1019.5269 C693.41,1039.1469 632.08,1068.8469 629,1073.8469 C616.18,1094.6269 623.6738,1117.8569 632.9038,1136.0369" fill="none" id="Router-to-TopStocks" style="stroke:#333333;stroke-width:2;"/><polygon fill="#333333" points="635.62,1141.3869,635.1124,1131.5511,633.3565,1136.9286,627.9791,1135.1727,635.62,1141.3869" style="stroke:#333333;stroke-width:2;"/><text fill="#000000" font-family="sans-serif" font-size="13" lengthAdjust="spacing" textLength="76.356" x="630" y="1086.9138">legacy path</text></g><!--link Scanner to Leaderboard--><g class="link" data-entity-1="Scanner" data-entity-2="Leaderboard" data-source-line="66" data-uid="lnk39" id="link_Scanner_Leaderboard"><path d="M1074.46,1019.6369 C1077.13,1034.1269 1080.58,1055.2269 1082,1073.8469 C1082.57,1081.3769 1082.11,1083.2869 1082,1090.8469 C1081.75,1108.0069 1081.3492,1121.5905 1080.8692,1135.3505" fill="none" id="Scanner-to-Leaderboard" style="stroke:#333333;stroke-width:2;"/><polygon fill="#333333" points="1080.66,1141.3469,1084.9713,1132.4918,1080.8343,1136.3499,1076.9762,1132.2129,1080.66,1141.3469" style="stroke:#333333;stroke-width:2;"/><text fill="#000000" font-family="sans-serif" font-size="13" lengthAdjust="spacing" textLength="119.9707" x="1083.28" y="1086.9138">scan leaderboards</text></g><!--link Scanner to TopTrades--><g class="link" data-entity-1="Scanner" data-entity-2="TopTrades" data-source-line="67" data-uid="lnk40" id="link_Scanner_TopTrades"><path d="M991.1,1004.9869 C940.41,1011.4769 878.14,1028.9169 844,1073.8469 C829.32,1093.1569 830.9722,1116.798 834.9522,1135.518" fill="none" id="Scanner-to-TopTrades" style="stroke:#333333;stroke-width:2;"/><polygon fill="#333333" points="836.2,1141.3869,838.2409,1131.7518,835.1602,1136.4962,830.4158,1133.4155,836.2,1141.3869" style="stroke:#333333;stroke-width:2;"/><text fill="#000000" font-family="sans-serif" font-size="13" lengthAdjust="spacing" textLength="75.6895" x="845" y="1086.9138">scan trades</text></g><!--link Processor to MDC--><g class="link" data-entity-1="Processor" data-entity-2="MDC" data-source-line="68" data-uid="lnk41" id="link_Processor_MDC"><path d="M1063.93,865.6869 C945.11,870.0569 729.35,885.5469 554,939.8669 C524.98,948.8469 499.7197,961.7085 477.1597,974.8985" fill="none" id="Processor-to-MDC" style="stroke:#0000FF;stroke-width:3;"/><polygon fill="#0000FF" points="471.98,977.9269,481.7684,976.8374,476.2964,975.4032,477.7306,969.9312,471.98,977.9269" style="stroke:#0000FF;stroke-width:3;"/><text fill="#000000" font-family="sans-serif" font-size="13" lengthAdjust="spacing" textLength="110.043" x="650.27" y="924.2438">cache + pub/sub</text></g><!--link MDC to Widget--><g class="link" data-entity-1="MDC" data-entity-2="Widget" data-source-line="70" data-uid="lnk42" id="link_MDC_Widget"><path d="M435.47,1023.8369 C433.26,1055.3469 429.6504,1106.9516 427.6304,1135.7116" fill="none" id="MDC-to-Widget" style="stroke:#0000FF;stroke-width:3;"/><polygon fill="#0000FF" points="427.21,1141.6969,431.8307,1132.9992,427.5603,1136.7092,423.8504,1132.4387,427.21,1141.6969" style="stroke:#0000FF;stroke-width:3;"/><text fill="#000000" font-family="sans-serif" font-size="13" lengthAdjust="spacing" textLength="92.187" x="432.83" y="1086.9138">Redis pub/sub</text></g><!--link Widget to CacheClient--><g class="link" data-entity-1="Widget" data-entity-2="CacheClient" data-source-line="71" data-uid="lnk43" id="link_Widget_CacheClient"><path d="M425.08,1178.5469 C423.74,1204.2869 421.5719,1245.995 420.2319,1271.735" fill="none" id="Widget-to-CacheClient" style="stroke:#333333;stroke-width:2;"/><polygon fill="#333333" points="419.92,1277.7269,424.3825,1268.947,420.1799,1272.7336,416.3933,1268.5311,419.92,1277.7269" style="stroke:#333333;stroke-width:2;"/><text fill="#000000" font-family="sans-serif" font-size="13" lengthAdjust="spacing" textLength="97.9824" x="424.33" y="1223.2038">load snapshots</text></g><!--link Widget to Clients--><g class="link" data-entity-1="Widget" data-entity-2="Clients" data-source-line="72" data-uid="lnk44" id="link_Widget_Clients"><path d="M350.71,1178.5869 C324.32,1186.3269 295.04,1196.7469 270,1210.1369 C246.06,1222.9369 226.7705,1237.4831 207.7905,1253.9631" fill="none" id="Widget-to-Clients" style="stroke:#008000;stroke-width:3;"/><polygon fill="#008000" points="203.26,1257.8969,212.6783,1255.0166,207.0354,1254.6187,207.4333,1248.9759,203.26,1257.8969" style="stroke:#008000;stroke-width:3;"/><text fill="#000000" font-family="sans-serif" font-size="13" lengthAdjust="spacing" textLength="143.1587" x="271" y="1223.2038">WebSocket streaming</text></g><!--link SCP to Widget--><g class="link" data-entity-1="SCP" data-entity-2="Widget" data-source-line="74" data-uid="lnk45" id="link_SCP_Widget"><path d="M137.58,1019.5169 C145,1033.7569 154.99,1054.5869 161,1073.8469 C163.29,1081.1669 158.33,1085.6669 164,1090.8469 C179.64,1105.1269 238.3,1094.3269 259,1098.8469 C303.86,1108.6369 347.5375,1125.0849 380.8475,1139.0649" fill="none" id="SCP-to-Widget" style="stroke:#800080;stroke-width:2;stroke-dasharray:7,7;"/><polygon fill="#800080" points="386.38,1141.3869,379.6292,1134.2156,381.7696,1139.4519,376.5333,1141.5923,386.38,1141.3869" style="stroke:#800080;stroke-width:2;"/><text fill="#000000" font-family="sans-serif" font-size="13" lengthAdjust="spacing" textLength="108.3291" x="165" y="1086.9138">manage/monitor</text></g><!--link SCP to Clients--><g class="link" data-entity-1="SCP" data-entity-2="Clients" data-source-line="75" data-uid="lnk46" id="link_SCP_Clients"><path d="M130.14,1019.4769 C135.86,1066.0269 150.8191,1187.9116 158.6691,1251.8716" fill="none" id="SCP-to-Clients" style="stroke:#008000;stroke-width:3;"/><polygon fill="#008000" points="159.4,1257.8269,162.2738,1248.4066,158.7909,1252.8641,154.3334,1249.3812,159.4,1257.8269" style="stroke:#008000;stroke-width:3;"/><text fill="#000000" font-family="sans-serif" font-size="13" lengthAdjust="spacing" textLength="114.6323" x="153.47" y="1164.5538">SPA + auth token</text></g><!--link Listener to OTel--><g class="link" data-entity-1="Listener" data-entity-2="OTel" data-source-line="77" data-uid="lnk47" id="link_Listener_OTel"><path d="M1242.22,297.2169 C1371.77,312.1669 1607,349.6969 1607,425.0869 C1607,425.0869 1607,425.0869 1607,705.0469 C1607,744.5569 1596.8,755.0369 1604,793.8869 C1614.17,848.7869 1638.83,856.2769 1649,911.1769 C1663.54,989.6969 1680.99,1017.6769 1649,1090.8469 C1627.96,1138.9769 1508.4834,1233.9086 1456.0734,1274.0486" fill="none" id="Listener-to-OTel" style="stroke:#333333;stroke-width:2;stroke-dasharray:7,7;"/><polygon fill="#333333" points="1451.31,1277.6969,1460.8873,1275.4001,1455.2795,1274.6567,1456.023,1269.0489,1451.31,1277.6969" style="stroke:#333333;stroke-width:2;"/><text fill="#000000" font-family="sans-serif" font-size="13" lengthAdjust="spacing" textLength="93.3423" x="1605" y="789.9538">traces/metrics</text></g><!--link Processor to OTel--><g class="link" data-entity-1="Processor" data-entity-2="OTel" data-source-line="78" data-uid="lnk48" id="link_Processor_OTel"><path d="M1242.2,872.6069 C1327.78,882.8869 1448.15,903.4769 1477,939.8669 C1505.71,976.0769 1495.03,1001.2969 1477,1043.8469 C1469.52,1061.4969 1454.19,1056.5069 1446,1073.8469 C1413.12,1143.4169 1419.8116,1233.0837 1424.6916,1271.9037" fill="none" id="Processor-to-OTel" style="stroke:#333333;stroke-width:2;stroke-dasharray:7,7;"/><polygon fill="#333333" points="1425.44,1277.8569,1428.2862,1268.4282,1424.8164,1272.8959,1420.3487,1269.4261,1425.44,1277.8569" style="stroke:#333333;stroke-width:2;"/><text fill="#000000" font-family="sans-serif" font-size="13" lengthAdjust="spacing" textLength="93.3423" x="1447" y="1086.9138">traces/metrics</text></g><!--link Widget to OTel--><g class="link" data-entity-1="Widget" data-entity-2="OTel" data-source-line="79" data-uid="lnk49" id="link_Widget_OTel"><path d="M472.79,1178.5769 C496.76,1186.9369 526.6,1196.3369 554,1202.1369 C852.2,1265.2669 1211.1656,1286.327 1357.1556,1292.657" fill="none" id="Widget-to-OTel" style="stroke:#333333;stroke-width:2;stroke-dasharray:7,7;"/><polygon fill="#333333" points="1363.15,1292.9169,1354.3317,1288.5308,1358.1547,1292.7003,1353.9852,1296.5233,1363.15,1292.9169" style="stroke:#333333;stroke-width:2;"/><text fill="#000000" font-family="sans-serif" font-size="13" lengthAdjust="spacing" textLength="93.3423" x="672.34" y="1223.2038">traces/metrics</text></g><!--link Listener to Logging--><g class="link" data-entity-1="Listener" data-entity-2="Logging" data-source-line="80" data-uid="lnk50" id="link_Listener_Logging"><path d="M1242.22,291.3169 C1403.3,297.8669 1742,323.6869 1742,425.0869 C1742,425.0869 1742,425.0869 1742,1160.9869 C1742,1216.2769 1689.709,1253.5415 1649.199,1274.8715" fill="none" id="Listener-to-Logging" style="stroke:#333333;stroke-width:2;stroke-dasharray:7,7;"/><polygon fill="#333333" points="1643.89,1277.6669,1653.7171,1277.0131,1648.3142,1275.3374,1649.9899,1269.9344,1643.89,1277.6669" style="stroke:#333333;stroke-width:2;"/><text fill="#000000" font-family="sans-serif" font-size="13" lengthAdjust="spacing" textLength="62.7656" x="1743" y="789.9538">JSON logs</text></g><!--link Processor to Logging--><g class="link" data-entity-1="Processor" data-entity-2="Logging" data-source-line="81" data-uid="lnk51" id="link_Processor_Logging"><path d="M1241.94,865.6469 C1307.91,869.5369 1398.86,880.6869 1473,911.1769 C1492.9,919.3669 1499.92,922.0569 1512,939.8669 C1588.12,1052.0069 1601.6767,1216.8831 1604.1767,1271.7131" fill="none" id="Processor-to-Logging" style="stroke:#333333;stroke-width:2;stroke-dasharray:7,7;"/><polygon fill="#333333" points="1604.45,1277.7069,1608.0359,1268.534,1604.2223,1272.7121,1600.0442,1268.8984,1604.45,1277.7069" style="stroke:#333333;stroke-width:2;"/><text fill="#000000" font-family="sans-serif" font-size="13" lengthAdjust="spacing" textLength="62.7656" x="1577.55" y="1086.9138">JSON logs</text></g><!--link Widget to Logging--><g class="link" data-entity-1="Widget" data-entity-2="Logging" data-source-line="82" data-uid="lnk52" id="link_Widget_Logging"><path d="M470.26,1178.5569 C494.56,1187.3569 525.49,1197.1669 554,1202.1369 C580.18,1206.7069 1484.61,1227.2969 1510,1235.1369 C1538.35,1243.8969 1561.83,1259.7273 1580.04,1274.1773" fill="none" id="Widget-to-Logging" style="stroke:#333333;stroke-width:2;stroke-dasharray:7,7;"/><polygon fill="#333333" points="1584.74,1277.9069,1580.1763,1269.1792,1580.8233,1274.7989,1575.2036,1275.4459,1584.74,1277.9069" style="stroke:#333333;stroke-width:2;"/><text fill="#000000" font-family="sans-serif" font-size="13" lengthAdjust="spacing" textLength="62.7656" x="1343.81" y="1223.2038">JSON logs</text></g><!--link Listener to Serde--><g class="link" data-entity-1="Listener" data-entity-2="Serde" data-source-line="84" data-uid="lnk53" id="link_Listener_Serde"><path d="M1242.23,291.5869 C1398.37,296.8069 1723.56,310.6269 1768,336.2569 C1809.49,360.1869 1829,377.1969 1829,425.0869 C1829,425.0869 1829,425.0869 1829,864.0269 C1829,905.9069 1861.04,908.4969 1898,928.1769 C1918.14,938.9069 1926.57,932.0269 1948,939.8669 C1979.53,951.3869 2008.2655,966.3689 2031.6155,979.6589" fill="none" id="Listener-to-Serde" style="stroke:#333333;stroke-width:2;"/><polygon fill="#333333" points="2036.83,982.6269,2030.9868,974.6986,2032.4846,980.1536,2027.0296,981.6513,2036.83,982.6269" style="stroke:#333333;stroke-width:2;"/><text fill="#000000" font-family="sans-serif" font-size="13" lengthAdjust="spacing" textLength="53.7393" x="1830" y="627.2838">serialize</text></g><!--link Processor to PM--><g class="link" data-entity-1="Processor" data-entity-2="PM" data-source-line="85" data-uid="lnk54" id="link_Processor_PM"><path d="M1241.85,871.5169 C1319.22,878.8769 1434.16,891.8469 1533,911.1769 C1630.68,930.2869 1736.3026,960.7414 1801.4726,980.6814" fill="none" id="Processor-to-PM" style="stroke:#333333;stroke-width:2;"/><polygon fill="#333333" points="1807.21,982.4369,1799.7742,975.9787,1802.4288,980.974,1797.4335,983.6286,1807.21,982.4369" style="stroke:#333333;stroke-width:2;"/><text fill="#000000" font-family="sans-serif" font-size="13" lengthAdjust="spacing" textLength="74.9595" x="1607.13" y="924.2438">orchestrate</text></g><!--link Listener to Utils--><g class="link" data-entity-1="Listener" data-entity-2="Utils" data-source-line="86" data-uid="lnk55" id="link_Listener_Utils"><path d="M1242.14,289.3069 C1393.07,290.6369 1705.89,298.0869 1807,336.2569 C1868.08,359.3169 1924,359.7969 1924,425.0869 C1924,425.0869 1924,425.0869 1924,864.0269 C1924,984.3969 2085.82,870.2169 2184,939.8669 C2199.39,950.7769 2208.4173,963.7238 2215.7573,977.2438" fill="none" id="Listener-to-Utils" style="stroke:#333333;stroke-width:2;"/><polygon fill="#333333" points="2218.62,982.5169,2217.8413,972.6989,2216.2344,978.1227,2210.8106,976.5158,2218.62,982.5169" style="stroke:#333333;stroke-width:2;"/><text fill="#000000" font-family="sans-serif" font-size="13" lengthAdjust="spacing" textLength="54.6914" x="1925" y="627.2838">API keys</text></g><!--link MDC to GMN59--><g class="link" data-entity-1="MDC" data-entity-2="GMN59" data-source-line="97" data-uid="lnk61" id="link_MDC_GMN59"><path d="M461.39,977.9269 C486.66,955.7269 528.43,923.6569 571.5,910.5169 C660.72,883.2969 2162.39,879.9069 2250.5,910.5169 C2278.14,920.1269 2304.15,939.4869 2324.37,957.8369" fill="none" id="MDC-GMN59" style="stroke:#333333;stroke-width:2;stroke-dasharray:7,7;"/></g><!--link Listener to GMN65--><g class="link" data-entity-1="Listener" data-entity-2="GMN65" data-source-line="113" data-uid="lnk67" id="link_Listener_GMN65"><path d="M1242.13,291.2369 C1431.82,296.4969 1885.23,311.5069 1950,336.2569 C1976.54,346.3969 2001.75,365.2469 2021.5,382.9669" fill="none" id="Listener-GMN65" style="stroke:#333333;stroke-width:2;stroke-dasharray:7,7;"/></g><!--SRC=[bLRVKziu47xtNx53Nc3Qq02brylCtGoNaA4z0cdDJH-OFiZsOcjYIpv9Xajl-h_VhcG79mIO2m_8gsz_QBNVQkrIgbeOKK6ggrehL2vsgnB1OEg4oakCx1gIY7IP6zseRA9BRU2XaAw_RmkHwGUfShWJfUtld1cZ7uBIuCJ_jZTl2fak5LeBnr7afACG_coA4Yv4Os4kp18TJ8KJi2Y5kzEcWY5Ckf39HCgnfAun64LfgPiCzkR2MdcFXtGo-8P9h5CsShRuj0U2RVfT6Cncv_IBeffE9tA4lObMpkYIFIdSWy6v_y6_4T1ldIROYz7SonHX0m_xyMHnu3tG0WQ_d4zFZe-YdptxtJ62yO-pzxEFPDnRNsFw9xwKrg520_lpwIMP7apzhmreAwZsMApOwVbWkezNTBuqsA3r6c6v2-zthaI5Nz7gyhxrq7ruZP_XF7ypSlCqmIoVvKj84oteIAFHyT4VBoHXONHArQ5z5XR_8mjhHUzi_RLRY_snKfmArMMkNR_Yvao9SlMZIuLkt6wDInGPcaGBasrezEIxr6vqVMC8OJUKrj9dL6979Vz49KZxjvHH_8cmMncVYBH0plQakwS9aUNqxCFnoTOzVPDPtcbrfDZ_DerVkwMWv_CTjBoV87tvVa9iarAIt2jvGVXkJzPdt7LYoO58P2dTQeyfF_lr_CDJHb_Ng6wmn0gTMNcxr_JvXFVEDBxJP72fyvpwNRZ2iDvm71V2msHYX95ChC5in7zFVRULEHUADDjYdM-3rcriJb32KTwoa3M_seR_vMGPoEnN79f87N683RNf2_ljEegwjZYy7L3aRrtNbdyx-Jxy_R4LZNiTrJg3eehMUqC2Tis0W8R90CaAtAh6QBt1gBONZA5kabBQ8ce5v5mRUdrmsp_tYZ5y5KaYtVmBxD_SN8xXr1vGtBJphDfZynXJUfHjAYhGsk0TkhGOmz5eT10zOdpydi445u4zKIlWlHvN6P3d1dD1HyHxdy8USarGmZbUxCO4HXAc94FfYeZbYgXjEpiyMjeXw5faDx1zdnxfGeledUzsa9JDZjnEE3sUMM_uHjxP9k74JfxJQ7bF5uAPj6kLLip1z6Z9nzCY0wj4RGjDIUXmjmFA8Afjwsr9xYWrPbd4h-lXxQ1kJ5tYsqpO0hFlXxsWAi-aTvLMaahUurzt5I_EwF2YSGKulKGLFPRr8SqsYXnmImZtIVbynwr2fltqlenhmtiPzCHdsri8-Jc-lg94vhiyxa9j-Ti5sMIkRoHSEsYaA2ML_YOp5dFQr3Hl8Lq6bVscjkyp1A0f2vQu8kDA4pMCp0i7-eu9J4sg8p0jhxGQrcYiD-AW2dsDdwVJeKKYQmP4SlfSe1bITTdKoDf9hS9imS3PfzarHKHquC90qc2VJprFs3DNAlt_f8OLLjgiGi6JXBn0hKkPIfvEJktm-7rnGF8pfokPWgOW1VjbxGLLUjmaRRGxl2RQaHgxxGySD2YcZJ6eYEDpdVcN9SPAr8Ks2AMifADkDXgnLxjIATH1cHq0N6WZVz2eAKhcTHc4iQChA7bi9exBN3qVI6y0_CfvLJGjSnfZVulvYkJXVHsA1tgqE8R6wQ7fi2JuCBAS8dOD-pHaMymuGnSeIkOBrV1oHoxeTPbYNUfLHHTynNBe2SOqvYTe53fA-nkOCi-Dlw0CwJNEk2ZQum9TmUFhnbPuuAXva1w3LDHGgLS3MNhGPWbQbNmc6aF6WF_K72nH6jBseGCUptcdLHCfP_enzly0]--></g></svg>